<svg data-v-fde0c5aa="" xmlns="http://www.w3.org/2000/svg" viewBox="0 0 300 300" class="iconAbove"><!----><defs data-v-fde0c5aa=""><!----></defs><rect data-v-fde0c5aa="" fill="transparent" x="0" y="0" width="300px" height="300px" class="logo-background-square"></rect><defs data-v-fde0c5aa=""><!----></defs><g data-v-fde0c5aa="" id="1fbc83c3-d658-4565-a5d6-27149bd41e59" fill="#000000" transform="matrix(1.8124782539647588,0,0,1.8124782539647588,18.024398642680424,168.41582484047944)"><path d="M4.79 9.97L4.79 9.97L4.79 9.97Q4.79 10.60 6.20 10.60L6.20 10.60L6.20 10.60Q8.11 10.60 9.87 9.93L9.87 9.93L9.87 9.93Q10.42 9.71 11.00 9.46L11.00 9.46L11.77 9.01L11.77 9.01Q13.02 8.30 13.55 8.30L13.55 8.30L13.55 8.30Q13.77 8.30 13.90 8.37L13.90 8.37L13.90 8.37Q14.25 8.48 14.45 8.72L14.45 8.72L14.45 8.72Q14.83 9.15 14.83 9.38L14.83 9.38L14.83 9.38Q14.83 9.61 14.71 9.97L14.71 9.97L14.71 9.97Q14.59 10.33 14.40 10.75L14.40 10.75L14.40 10.75Q14.20 11.17 13.94 11.62L13.94 11.62L13.94 11.62Q13.68 12.07 13.38 12.48L13.38 12.48L13.38 12.48Q12.73 13.42 12.22 13.84L12.22 13.84L12.22 13.84Q12.02 14.08 11.74 14.37L11.74 14.37L11.74 14.37Q11.46 14.66 10.98 14.99L10.98 14.99L10.98 14.99Q10.49 15.33 9.96 15.58L9.96 15.58L9.96 15.58Q9.43 15.84 8.88 16.03L8.88 16.03L8.88 16.03Q8.33 16.21 7.82 16.34L7.82 16.34L7.82 16.34Q6.85 16.58 6.33 16.58L6.33 16.58L6.33 16.58Q5.80 16.58 5.57 16.37L5.57 16.37L5.57 16.37Q5.33 16.16 5.33 15.84L5.33 15.84L5.33 15.84Q5.33 15.52 5.55 15.21L5.55 15.21L5.55 15.21Q5.78 14.90 6.16 14.60L6.16 14.60L6.16 14.60Q6.54 14.31 7.04 14.04L7.04 14.04L7.04 14.04Q7.54 13.77 8.09 13.53L8.09 13.53L8.09 13.53Q9.10 13.09 10.33 12.74L10.33 12.74L10.33 12.74Q11.03 11.79 11.57 10.79L11.57 10.79L11.24 10.98L11.24 10.98Q11.07 11.07 10.90 11.14L10.90 11.14L10.90 11.14Q9.67 11.89 7.78 12.47L7.78 12.47L7.78 12.47Q5.54 13.16 3.51 13.16L3.51 13.16L3.51 13.16Q2.37 13.16 1.70 12.40L1.70 12.40L1.70 12.40Q1.09 11.71 1.09 10.65L1.09 10.65L1.09 10.65Q1.09 9.53 2.60 8.24L2.60 8.24L2.60 8.24Q3.92 7.10 6.19 6.03L6.19 6.03L6.19 6.03Q8.24 5.04 10.43 4.42L10.43 4.42L10.43 4.42Q12.60 3.79 13.93 3.79L13.93 3.79L13.93 3.79Q14.72 3.79 15.00 4.32L15.00 4.32L15.00 4.32Q15.11 4.52 15.11 4.88L15.11 4.88L15.11 4.88Q15.11 5.25 14.83 5.54L14.83 5.54L14.83 5.54Q14.56 5.82 14.12 5.99L14.12 5.99L14.12 5.99Q13.34 6.29 12.20 6.29L12.20 6.29L12.20 6.29Q11.05 6.29 10.13 6.15L10.13 6.15L10.13 6.15Q8.83 6.58 7.49 7.40L7.49 7.40L7.49 7.40Q6.36 8.08 5.54 8.87L5.54 8.87L5.54 8.87Q4.79 9.60 4.79 9.97ZM15.84 10.84L15.84 10.84L15.84 10.84Q15.71 10.84 15.58 10.78L15.58 10.78L15.58 10.78Q15.46 10.72 15.35 10.58L15.35 10.58L15.35 10.58Q15.11 10.28 15.11 9.76L15.11 9.76L15.11 9.76Q15.11 9.21 15.77 8.38L15.77 8.38L15.77 8.38Q16.41 7.58 17.27 7L17.27 7L17.27 7Q18.18 6.37 18.84 6.37L18.84 6.37L18.84 6.37Q19.42 6.37 19.63 6.70L19.63 6.70L19.72 6.85L19.72 6.85Q19.83 7.02 19.94 7.02L19.94 7.02L19.94 7.02Q20.05 7.02 20.28 7L20.28 7L21.25 6.93L21.25 6.93Q21.48 6.91 21.61 6.91L21.61 6.91L21.61 6.91Q21.74 6.91 21.91 7.00L21.91 7.00L21.91 7.00Q22.07 7.10 22.20 7.25L22.20 7.25L22.20 7.25Q22.49 7.59 22.49 8.00L22.49 8.00L22.49 8.00Q22.49 8.42 21.55 9.33L21.55 9.33L21.10 9.78L21.10 9.78Q20.62 10.28 20.62 10.41L20.62 10.41L20.62 10.41Q20.62 10.54 20.74 10.64L20.74 10.64L20.74 10.64Q20.86 10.74 21.01 10.74L21.01 10.74L21.01 10.74Q21.15 10.74 21.33 10.66L21.33 10.66L21.33 10.66Q21.51 10.58 21.78 10.43L21.78 10.43L21.78 10.43Q22.05 10.27 22.39 10.06L22.39 10.06L22.39 10.06Q23.32 9.44 23.64 9.21L23.64 9.21L24.21 8.80L24.21 8.80Q24.79 8.39 25.03 8.39L25.03 8.39L25.03 8.39Q25.28 8.39 25.44 8.50L25.44 8.50L25.44 8.50Q25.59 8.61 25.59 8.87L25.59 8.87L25.59 8.87Q25.59 9.13 25.33 9.56L25.33 9.56L25.33 9.56Q25.06 10.00 24.75 10.32L24.75 10.32L24.75 10.32Q24.44 10.64 24.14 10.92L24.14 10.92L24.14 10.92Q23.85 11.19 23.45 11.51L23.45 11.51L23.45 11.51Q23.05 11.83 22.57 12.15L22.57 12.15L22.57 12.15Q22.08 12.48 21.54 12.74L21.54 12.74L21.54 12.74Q20.32 13.33 19.29 13.33L19.29 13.33L19.29 13.33Q17.79 13.33 17.47 12.56L17.47 12.56L17.47 12.56Q17.36 12.33 17.36 12.04L17.36 12.04L17.36 12.04Q17.36 11.75 17.47 11.42L17.47 11.42L17.47 11.42Q17.58 11.09 17.76 10.76L17.76 10.76L17.76 10.76Q18.12 10.11 18.60 9.61L18.60 9.61L18.60 9.61Q19.01 9.18 19.01 9.10L19.01 9.10L19.01 9.10Q19.01 8.97 18.86 8.93L18.86 8.93L18.86 8.93Q18.72 8.90 18.43 8.90L18.43 8.90L18.43 8.90Q18.31 8.90 17.90 9.26L17.90 9.26L17.23 9.87L17.23 9.87Q16.17 10.84 15.84 10.84ZM36.22 7.96L36.22 7.96L36.22 7.96Q36.44 7.96 36.44 8.33L36.44 8.33L36.44 8.33Q36.44 8.97 35.55 9.98L35.55 9.98L35.16 10.38L35.16 10.38Q33.39 12.15 31.82 12.74L31.82 12.74L31.82 12.74Q30.85 13.10 30.43 12.70L30.43 12.70L30.43 12.70Q30.08 12.37 29.87 11.62L29.87 11.62L29.71 11.03L28.25 11.92L27.41 12.40L27.41 12.40Q25.91 13.22 25.16 13.22L25.16 13.22L25.16 13.22Q24.19 13.22 23.55 12.48L23.55 12.48L23.55 12.48Q22.93 11.77 22.93 10.84L22.93 10.84L22.93 10.84Q22.93 9.93 23.67 9.21L23.67 9.21L23.67 9.21Q24.71 8.18 26.97 7.33L26.97 7.33L26.97 7.33Q29.10 6.53 30.41 6.53L30.41 6.53L30.41 6.53Q30.86 6.53 30.86 6.97L30.86 6.97L30.86 6.97Q30.86 7.27 30.74 7.42L30.74 7.42L30.74 7.42Q30.63 7.57 30.26 7.72L30.26 7.72L29.40 8.09L29.40 8.09Q27.49 8.89 26.60 9.75L26.60 9.75L26.60 9.75Q26.35 9.99 26.35 10.22L26.35 10.22L26.35 10.22Q26.35 10.45 26.71 10.45L26.71 10.45L26.71 10.45Q27.06 10.45 28.36 9.68L28.36 9.68L28.93 9.34L28.93 9.34Q30.25 8.55 31.14 8.55L31.14 8.55L31.14 8.55Q31.89 8.55 32.14 9.21L32.14 9.21L32.14 9.21Q32.20 9.39 32.25 9.57L32.25 9.57L32.25 9.57Q32.31 9.75 32.36 9.90L32.36 9.90L32.36 9.90Q32.48 10.23 32.58 10.23L32.58 10.23L32.58 10.23Q32.68 10.23 32.87 10.13L32.87 10.13L32.87 10.13Q33.05 10.04 33.27 9.88L33.27 9.88L33.27 9.88Q33.50 9.73 33.74 9.54L33.74 9.54L34.56 8.88L34.56 8.88Q35.66 7.96 36.22 7.96ZM42.41 9.43L42.41 9.43L42.41 9.43Q42.41 10.05 42.77 10.05L42.77 10.05L42.77 10.05Q43.66 10.05 45.08 8.85L45.08 8.85L45.27 8.69L45.27 8.69Q45.82 8.32 46.17 8.32L46.17 8.32L46.17 8.32Q46.51 8.32 46.60 8.42L46.60 8.42L46.60 8.42Q46.70 8.52 46.70 8.75L46.70 8.75L46.70 8.75Q46.70 9.26 46.18 9.82L46.18 9.82L46.18 9.82Q45.42 10.75 44.08 11.59L44.08 11.59L44.08 11.59Q42.54 12.56 41.32 12.56L41.32 12.56L41.32 12.56Q40.46 12.56 40.24 11.61L40.24 11.61L40.24 11.61Q40.18 11.36 40.15 11.14L40.15 11.14L40.15 11.14Q40.09 10.59 40.01 10.53L40.01 10.53L40.01 10.53Q39.94 10.47 39.71 10.54L39.71 10.54L39.71 10.54Q39.49 10.61 39.19 10.78L39.19 10.78L39.19 10.78Q38.88 10.94 38.51 11.18L38.51 11.18L38.51 11.18Q36.56 12.48 36.26 12.67L36.26 12.67L36.26 12.67Q35.56 13.10 35.31 13.10L35.31 13.10L35.31 13.10Q35.07 13.10 34.83 13.00L34.83 13.00L34.83 13.00Q34.60 12.90 34.42 12.74L34.42 12.74L34.42 12.74Q34.05 12.39 34.05 12.03L34.05 12.03L34.05 12.03Q34.05 9.96 34.95 8.41L34.95 8.41L34.95 8.41Q35.55 7.36 36.43 6.96L36.43 6.96L36.43 6.96Q36.87 6.75 37.39 6.75L37.39 6.75L37.39 6.75Q38.32 6.75 38.32 7.36L38.32 7.36L38.32 7.36Q38.32 7.74 37.88 8.59L37.88 8.59L37.67 9.00L37.67 9.00Q37.45 9.41 37.46 9.47L37.46 9.47L37.46 9.47Q37.50 9.67 37.65 9.67L37.65 9.67L37.65 9.67Q37.80 9.67 38.11 9.44L38.11 9.44L39.37 8.50L40.00 8.07L40.00 8.07Q41.08 7.36 41.60 7.36L41.60 7.36L41.60 7.36Q41.87 7.36 42.10 7.57L42.10 7.57L42.10 7.57Q42.51 7.97 42.51 8.26L42.51 8.26L42.51 8.26Q42.51 8.36 42.50 8.50L42.50 8.50L42.50 8.50Q42.48 8.63 42.46 8.79L42.46 8.79L42.43 9.11L42.43 9.11Q42.41 9.28 42.41 9.43ZM56.92 8.05L56.92 8.05L56.92 8.05Q57.23 8.05 57.23 8.36L57.23 8.36L57.23 8.36Q57.23 8.86 56.57 9.77L56.57 9.77L56.57 9.77Q56.12 10.40 54.69 11.53L54.69 11.53L54.69 11.53Q52.99 12.87 51.95 12.87L51.95 12.87L51.95 12.87Q51.17 12.87 50.78 12.21L50.78 12.21L50.78 12.21Q50.54 11.81 50.39 11.05L50.39 11.05L49.78 11.48L49.78 11.48Q47.27 13.22 46.03 13.22L46.03 13.22L46.03 13.22Q45.00 13.22 44.38 12.47L44.38 12.47L44.38 12.47Q43.83 11.79 43.83 10.85L43.83 10.85L43.83 10.85Q43.83 9.81 44.54 9.21L44.54 9.21L44.54 9.21Q45.99 7.99 48.15 7.21L48.15 7.21L48.15 7.21Q49.02 6.88 49.25 6.88L49.25 6.88L49.25 6.88Q49.49 6.88 49.68 6.96L49.68 6.96L49.68 6.96Q49.88 7.04 50.07 7.16L50.07 7.16L50.07 7.16Q50.52 7.47 50.52 7.76L50.52 7.76L50.52 7.76Q50.52 7.99 50.23 8.13L50.23 8.13L50.23 8.13Q50.14 8.18 49.93 8.26L49.93 8.26L49.93 8.26Q49.72 8.35 49.41 8.49L49.41 8.49L49.41 8.49Q48.58 8.88 47.80 9.43L47.80 9.43L47.80 9.43Q47.24 9.91 47.24 10.20L47.24 10.20L47.24 10.20Q47.24 10.48 47.63 10.48L47.63 10.48L47.63 10.48Q47.96 10.48 48.95 9.90L48.95 9.90L48.95 9.90Q48.95 9.90 49.53 9.54L49.53 9.54L49.53 9.54Q50.15 9.15 50.52 8.83L50.52 8.83L50.52 8.83Q50.52 8.83 50.84 7.81L50.84 7.81L50.84 7.81Q51.42 5.97 52.13 4.78L52.13 4.78L52.13 4.78Q53.39 2.37 54.66 2.37L54.66 2.37L54.66 2.37Q55.13 2.37 55.40 2.54L55.40 2.54L55.40 2.54Q55.89 2.84 55.89 3.22L55.89 3.22L55.89 3.22Q55.89 3.59 55.75 4.01L55.75 4.01L55.75 4.01Q55.62 4.42 55.40 4.83L55.40 4.83L55.40 4.83Q55.17 5.24 54.89 5.65L54.89 5.65L53.72 7.19L53.72 7.19Q53.42 7.57 53.20 7.92L53.20 7.92L53.20 7.92Q52.80 8.78 52.80 9.39L52.80 9.39L52.80 9.39Q52.80 10.26 53.44 10.26L53.44 10.26L53.44 10.26Q53.80 10.26 54.74 9.50L54.74 9.50L55.55 8.82L55.55 8.82Q56.12 8.31 56.67 8.11L56.67 8.11L56.67 8.11Q56.83 8.05 56.92 8.05ZM63.06 12.91L63.06 12.91L63.06 12.91Q62.54 12.68 62.24 12.33L62.24 12.33L62.24 12.33Q61.94 11.98 61.84 11.68L61.84 11.68L61.84 11.68Q61.69 11.22 61.69 10.89L61.69 10.89L61.69 10.89Q61.69 10.56 61.91 10.14L61.91 10.14L61.91 10.14Q62.13 9.71 62.62 9.30L62.62 9.30L62.62 9.30Q63.72 8.39 65.98 7.74L65.98 7.74L65.98 7.74Q65.26 7.43 65.15 6.76L65.15 6.76L65.15 6.76Q65.05 6.00 65.81 5.40L65.81 5.40L65.81 5.40Q67.21 4.30 71.20 3.91L71.20 3.91L71.20 3.91Q72.43 3.79 72.98 3.79L72.98 3.79L72.98 3.79Q73.54 3.79 73.78 3.97L73.78 3.97L73.78 3.97Q74.01 4.15 74.06 4.50L74.06 4.50L74.06 4.50Q74.10 4.85 73.92 5.09L73.92 5.09L73.92 5.09Q73.75 5.33 73.42 5.48L73.42 5.48L73.42 5.48Q72.81 5.74 71.76 5.74L71.76 5.74L71.76 5.74Q70.98 5.74 70.35 5.51L70.35 5.51L70.35 5.51Q70.18 5.44 70.08 5.37L70.08 5.37L70.08 5.37Q68.71 5.79 68.53 6.32L68.53 6.32L68.53 6.32Q68.48 6.45 68.49 6.57L68.49 6.57L68.49 6.57Q68.55 6.99 69.04 7.18L69.04 7.18L69.04 7.18Q69.52 7.38 70.51 7.44L70.51 7.44L70.51 7.44Q70.84 7.46 71.00 7.62L71.00 7.62L71.00 7.62Q71.16 7.77 71.19 7.93L71.19 7.93L71.19 7.93Q71.21 8.09 71.16 8.19L71.16 8.19L71.16 8.19Q71.11 8.28 71.02 8.34L71.02 8.34L71.02 8.34Q70.85 8.45 70.37 8.52L70.37 8.52L70.37 8.52Q69.88 8.60 69.24 8.73L69.24 8.73L69.24 8.73Q68.60 8.87 68.02 9.02L68.02 9.02L68.02 9.02Q67.44 9.17 66.94 9.32L66.94 9.32L66.94 9.32Q66.45 9.48 66.08 9.63L66.08 9.63L66.08 9.63Q65.32 9.95 65.34 10.14L65.34 10.14L65.34 10.14Q65.37 10.34 65.50 10.48L65.50 10.48L65.50 10.48Q65.63 10.62 65.85 10.73L65.85 10.73L65.85 10.73Q66.26 10.92 66.85 10.98L66.85 10.98L66.85 10.98Q67.44 11.03 68.00 11.03L68.00 11.03L68.00 11.03Q68.56 11.03 69.20 10.93L69.20 10.93L69.20 10.93Q69.84 10.84 70.39 10.70L70.39 10.70L70.39 10.70Q70.95 10.55 71.42 10.39L71.42 10.39L71.42 10.39Q71.89 10.23 72.24 10.09L72.24 10.09L72.80 9.86L72.80 9.86Q73.01 9.76 73.19 9.76L73.19 9.76L73.19 9.76Q73.66 9.76 73.73 10.26L73.73 10.26L73.73 10.26Q73.81 10.94 72.21 11.79L72.21 11.79L72.21 11.79Q70.07 12.93 67.48 13.28L67.48 13.28L67.48 13.28Q66.88 13.36 66.03 13.36L66.03 13.36L66.03 13.36Q65.19 13.36 64.39 13.25L64.39 13.25L64.39 13.25Q63.59 13.14 63.06 12.91ZM81.55 8.97L80.03 10.06L80.03 10.06Q80.52 10.84 81.07 10.84L81.07 10.84L81.07 10.84Q81.63 10.84 83.19 9.82L83.19 9.82L83.93 9.31L83.93 9.31Q84.27 9.07 84.49 8.90L84.49 8.90L84.49 8.90Q84.72 8.72 84.88 8.60L84.88 8.60L84.88 8.60Q85.25 8.31 85.73 8.31L85.73 8.31L85.73 8.31Q85.88 8.31 86.02 8.40L86.02 8.40L86.02 8.40Q86.16 8.49 86.16 8.64L86.16 8.64L86.16 8.64Q86.16 8.80 86.12 8.95L86.12 8.95L86.12 8.95Q86.07 9.11 85.98 9.27L85.98 9.27L85.98 9.27Q85.79 9.66 85.62 9.86L85.62 9.86L85.62 9.86Q85.44 10.06 85.24 10.25L85.24 10.25L85.24 10.25Q85.05 10.45 84.76 10.71L84.76 10.71L84.76 10.71Q84.48 10.97 84.11 11.28L84.11 11.28L84.11 11.28Q83.75 11.58 83.33 11.88L83.33 11.88L83.33 11.88Q82.91 12.18 82.45 12.46L82.45 12.46L82.45 12.46Q81.99 12.74 81.50 12.95L81.50 12.95L81.50 12.95Q80.42 13.43 79.56 13.43L79.56 13.43L79.56 13.43Q78.61 13.43 78.00 12.39L78.00 12.39L78.00 12.39Q77.83 12.08 77.68 11.74L77.68 11.74L75.56 13.26L75.56 13.26Q75.05 13.66 74.65 13.66L74.65 13.66L74.65 13.66Q74.43 13.66 74.27 13.54L74.27 13.54L74.27 13.54Q73.97 13.30 73.97 13.04L73.97 13.04L73.97 13.04Q73.97 12.77 74.07 12.64L74.07 12.64L74.07 12.64Q74.17 12.50 74.33 12.37L74.33 12.37L77.02 10.05L77.02 10.05Q76.71 9.33 76.40 9.33L76.40 9.33L76.40 9.33Q75.94 9.33 75.47 9.71L75.47 9.71L75.17 9.95L75.17 9.95Q74.53 10.48 74.03 10.48L74.03 10.48L74.03 10.48Q73.83 10.48 73.66 10.36L73.66 10.36L73.66 10.36Q73.34 10.12 73.34 9.80L73.34 9.80L73.34 9.80Q73.34 9.49 74.03 8.91L74.03 8.91L74.30 8.69L74.30 8.69Q74.48 8.52 74.66 8.37L74.66 8.37L76.06 7.23L76.06 7.23Q77.08 6.44 77.72 6.44L77.72 6.44L77.72 6.44Q78.29 6.44 78.83 7.54L78.83 7.54L78.83 7.54Q78.99 7.86 79.15 8.22L79.15 8.22L80.40 7.14L80.40 7.14Q81.50 6.21 82.04 6.21L82.04 6.21L82.04 6.21Q82.46 6.21 82.81 6.46L82.81 6.46L82.81 6.46Q83.46 6.92 83.46 7.33L83.46 7.33L83.46 7.33Q83.46 7.59 83.24 7.72L83.24 7.72L83.24 7.72Q83.20 7.75 83.10 7.82L83.10 7.82L81.55 8.97ZM94.50 8.69L94.50 8.69L94.50 8.69Q94.50 9.01 93.66 9.93L93.66 9.93L93.66 9.93Q92.80 10.87 91.97 11.46L91.97 11.46L91.97 11.46Q90.37 12.65 88.42 13.08L88.42 13.08L88.42 13.08Q87.68 13.25 87.02 13.25L87.02 13.25L87.02 13.25Q86.37 13.25 85.93 13.14L85.93 13.14L85.93 13.14Q85.50 13.03 85.15 12.84L85.15 12.84L85.15 12.84Q84.81 12.65 84.55 12.41L84.55 12.41L84.55 12.41Q84.30 12.16 84.13 11.89L84.13 11.89L84.13 11.89Q83.79 11.35 83.79 10.90L83.79 10.90L83.79 10.90Q83.79 10.45 83.89 10.11L83.89 10.11L83.89 10.11Q83.99 9.77 84.17 9.46L84.17 9.46L84.17 9.46Q84.79 8.34 86.67 7.48L86.67 7.48L86.67 7.48Q88.16 6.79 89.50 6.58L89.50 6.58L89.50 6.58Q90.08 6.49 90.33 6.49L90.33 6.49L90.33 6.49Q90.58 6.49 90.74 6.55L90.74 6.55L90.74 6.55Q90.91 6.60 91.03 6.69L91.03 6.69L91.03 6.69Q91.31 6.88 91.31 7.23L91.31 7.23L91.31 7.23Q91.31 7.57 91.13 7.87L91.13 7.87L91.13 7.87Q90.95 8.18 90.68 8.38L90.68 8.38L90.68 8.38Q90.15 8.78 89.49 8.78L89.49 8.78L89.49 8.78Q88.59 8.78 88.01 8.54L88.01 8.54L88.01 8.54Q87.61 8.69 87.33 9.07L87.33 9.07L87.33 9.07Q87.10 9.39 87.10 9.64L87.10 9.64L87.10 9.64Q87.10 9.88 87.21 10.12L87.21 10.12L87.21 10.12Q87.32 10.36 87.53 10.54L87.53 10.54L87.53 10.54Q87.98 10.94 88.61 10.94L88.61 10.94L88.61 10.94Q90.09 10.94 92.05 9.37L92.05 9.37L92.67 8.89L92.67 8.89Q93.66 8.13 94.08 8.13L94.08 8.13L94.08 8.13Q94.50 8.13 94.50 8.69ZM95.74 8.67L95.74 8.67L95.74 8.67Q95.74 8.92 95.93 8.92L95.93 8.92L95.93 8.92Q96.15 8.92 96.51 8.62L96.51 8.62L97.10 8.11L97.10 8.11Q98.05 7.29 98.90 7.29L98.90 7.29L98.90 7.29Q99.46 7.29 99.89 8.22L99.89 8.22L99.89 8.22Q100.26 9.01 100.56 10.58L100.56 10.58L100.56 10.58Q100.62 10.84 100.66 10.84L100.66 10.84L100.66 10.84Q100.69 10.84 100.85 10.72L100.85 10.72L100.85 10.72Q101.01 10.60 101.25 10.40L101.25 10.40L101.25 10.40Q102.92 8.98 103.19 8.81L103.19 8.81L103.19 8.81Q103.45 8.64 103.55 8.58L103.55 8.58L103.55 8.58Q103.65 8.52 103.76 8.48L103.76 8.48L103.76 8.48Q104.04 8.37 104.19 8.37L104.19 8.37L104.19 8.37Q104.49 8.37 104.49 8.69L104.49 8.69L104.49 8.69Q104.49 9.17 103.87 10.08L103.87 10.08L103.87 10.08Q103.16 11.11 102.00 12.13L102.00 12.13L102.00 12.13Q100.65 13.32 99.63 13.32L99.63 13.32L99.63 13.32Q98.57 13.32 98.20 11.89L98.20 11.89L98.20 11.89Q98.10 11.52 98.05 11.20L98.05 11.20L97.95 10.66L97.95 10.66Q97.90 10.45 97.84 10.45L97.84 10.45L97.84 10.45Q97.77 10.45 97.57 10.66L97.57 10.66L97.06 11.17L97.06 11.17Q96.22 12.03 95.64 12.43L95.64 12.43L95.64 12.43Q94.49 13.23 93.62 13.23L93.62 13.23L93.62 13.23Q92.58 13.23 92.39 12.18L92.39 12.18L92.39 12.18Q92.34 11.87 92.34 11.39L92.34 11.39L92.34 11.39Q92.34 10.90 92.48 10.21L92.48 10.21L92.48 10.21Q92.61 9.51 92.85 8.81L92.85 8.81L92.85 8.81Q93.37 7.32 94.14 6.27L94.14 6.27L94.75 5.46L94.75 5.46Q96.96 2.58 98.44 2.58L98.44 2.58L98.44 2.58Q98.78 2.58 98.93 2.91L98.93 2.91L98.93 2.91Q98.98 3.01 98.98 3.21L98.98 3.21L98.98 3.21Q98.98 3.42 98.80 3.74L98.80 3.74L98.80 3.74Q98.62 4.07 98.36 4.42L98.36 4.42L98.36 4.42Q98.10 4.76 97.81 5.12L97.81 5.12L97.81 5.12Q97.51 5.48 97.26 5.83L97.26 5.83L96.75 6.58L96.75 6.58Q95.74 8.09 95.74 8.67ZM115.25 7.96L115.25 7.96L115.25 7.96Q115.47 7.96 115.47 8.33L115.47 8.33L115.47 8.33Q115.47 8.97 114.58 9.98L114.58 9.98L114.19 10.38L114.19 10.38Q112.42 12.15 110.85 12.74L110.85 12.74L110.85 12.74Q109.88 13.10 109.46 12.70L109.46 12.70L109.46 12.70Q109.11 12.37 108.90 11.62L108.90 11.62L108.74 11.03L107.28 11.92L106.44 12.40L106.44 12.40Q104.94 13.22 104.19 13.22L104.19 13.22L104.19 13.22Q103.22 13.22 102.58 12.48L102.58 12.48L102.58 12.48Q101.96 11.77 101.96 10.84L101.96 10.84L101.96 10.84Q101.96 9.93 102.70 9.21L102.70 9.21L102.70 9.21Q103.74 8.18 106.00 7.33L106.00 7.33L106.00 7.33Q108.13 6.53 109.44 6.53L109.44 6.53L109.44 6.53Q109.89 6.53 109.89 6.97L109.89 6.97L109.89 6.97Q109.89 7.27 109.77 7.42L109.77 7.42L109.77 7.42Q109.66 7.57 109.29 7.72L109.29 7.72L108.43 8.09L108.43 8.09Q106.52 8.89 105.63 9.75L105.63 9.75L105.63 9.75Q105.38 9.99 105.38 10.22L105.38 10.22L105.38 10.22Q105.38 10.45 105.74 10.45L105.74 10.45L105.74 10.45Q106.09 10.45 107.39 9.68L107.39 9.68L107.96 9.34L107.96 9.34Q109.28 8.55 110.17 8.55L110.17 8.55L110.17 8.55Q110.92 8.55 111.17 9.21L111.17 9.21L111.17 9.21Q111.23 9.39 111.28 9.57L111.28 9.57L111.28 9.57Q111.34 9.75 111.39 9.90L111.39 9.90L111.39 9.90Q111.51 10.23 111.61 10.23L111.61 10.23L111.61 10.23Q111.71 10.23 111.90 10.13L111.90 10.13L111.90 10.13Q112.08 10.04 112.30 9.88L112.30 9.88L112.30 9.88Q112.53 9.73 112.77 9.54L112.77 9.54L113.59 8.88L113.59 8.88Q114.69 7.96 115.25 7.96ZM121.44 9.43L121.44 9.43L121.44 9.43Q121.44 10.05 121.80 10.05L121.80 10.05L121.80 10.05Q122.69 10.05 124.11 8.85L124.11 8.85L124.30 8.69L124.30 8.69Q124.85 8.32 125.20 8.32L125.20 8.32L125.20 8.32Q125.54 8.32 125.63 8.42L125.63 8.42L125.63 8.42Q125.73 8.52 125.73 8.75L125.73 8.75L125.73 8.75Q125.73 9.26 125.21 9.82L125.21 9.82L125.21 9.82Q124.45 10.75 123.12 11.59L123.12 11.59L123.12 11.59Q121.57 12.56 120.35 12.56L120.35 12.56L120.35 12.56Q119.49 12.56 119.27 11.61L119.27 11.61L119.27 11.61Q119.21 11.36 119.18 11.14L119.18 11.14L119.18 11.14Q119.12 10.59 119.04 10.53L119.04 10.53L119.04 10.53Q118.97 10.47 118.74 10.54L118.74 10.54L118.74 10.54Q118.52 10.61 118.22 10.78L118.22 10.78L118.22 10.78Q117.91 10.94 117.54 11.18L117.54 11.18L117.54 11.18Q115.59 12.48 115.29 12.67L115.29 12.67L115.29 12.67Q114.59 13.10 114.34 13.10L114.34 13.10L114.34 13.10Q114.10 13.10 113.86 13.00L113.86 13.00L113.86 13.00Q113.63 12.90 113.45 12.74L113.45 12.74L113.45 12.74Q113.08 12.39 113.08 12.03L113.08 12.03L113.08 12.03Q113.08 9.96 113.98 8.41L113.98 8.41L113.98 8.41Q114.58 7.36 115.46 6.96L115.46 6.96L115.46 6.96Q115.90 6.75 116.42 6.75L116.42 6.75L116.42 6.75Q117.35 6.75 117.35 7.36L117.35 7.36L117.35 7.36Q117.35 7.74 116.91 8.59L116.91 8.59L116.70 9.00L116.70 9.00Q116.48 9.41 116.49 9.47L116.49 9.47L116.49 9.47Q116.53 9.67 116.68 9.67L116.68 9.67L116.68 9.67Q116.83 9.67 117.14 9.44L117.14 9.44L118.40 8.50L119.03 8.07L119.03 8.07Q120.11 7.36 120.63 7.36L120.63 7.36L120.63 7.36Q120.90 7.36 121.13 7.57L121.13 7.57L121.13 7.57Q121.54 7.97 121.54 8.26L121.54 8.26L121.54 8.26Q121.54 8.36 121.53 8.50L121.53 8.50L121.53 8.50Q121.51 8.63 121.49 8.79L121.49 8.79L121.46 9.11L121.46 9.11Q121.44 9.28 121.44 9.43ZM128.22 8.54L128.22 8.54L128.22 8.54Q127.76 8.79 127.34 9.08L127.34 9.08L127.34 9.08Q126.92 9.38 126.60 9.69L126.60 9.69L126.60 9.69Q126.28 9.99 126.28 10.22L126.28 10.22L126.28 10.22Q126.28 10.45 126.64 10.45L126.64 10.45L126.64 10.45Q126.90 10.45 127.38 10.20L127.38 10.20L128.86 9.41L128.86 9.41Q129.27 9.20 129.60 8.91L129.60 8.91L130.08 8.49L130.08 8.49Q130.60 8.02 131.17 8.02L131.17 8.02L131.17 8.02Q131.46 8.02 131.76 8.35L131.76 8.35L131.76 8.35Q132.05 8.67 132.05 9.02L132.05 9.02L132.05 9.02Q132.05 9.80 131.41 11.34L131.41 11.34L132.50 10.45L134.76 8.69L134.76 8.69Q135.12 8.42 135.36 8.42L135.36 8.42L135.36 8.42Q135.88 8.42 135.88 8.91L135.88 8.91L135.88 8.91Q135.88 9.43 135.21 10.23L135.21 10.23L135.21 10.23Q134.89 10.62 134.33 11.06L134.33 11.06L130.55 13.93L130.55 13.93Q130.17 14.23 129.95 14.43L129.95 14.43L129.95 14.43Q129.05 15.89 128.21 16.54L128.21 16.54L128.21 16.54Q127.00 17.50 125.97 17.50L125.97 17.50L125.97 17.50Q125.51 17.50 125.21 17.24L125.21 17.24L125.21 17.24Q124.95 17.01 124.95 16.71L124.95 16.71L124.95 16.71Q124.95 16.43 125.10 16.11L125.10 16.11L125.10 16.11Q125.25 15.78 125.50 15.46L125.50 15.46L125.50 15.46Q125.75 15.13 126.08 14.81L126.08 14.81L126.08 14.81Q126.40 14.49 126.76 14.18L126.76 14.18L126.76 14.18Q127.72 13.43 128.12 13.14L128.12 13.14L128.79 12.65L128.79 12.65Q129.19 11.81 129.47 10.83L129.47 10.83L129.47 10.83Q128.15 12.00 126.66 12.66L126.66 12.66L126.66 12.66Q125.92 13.00 125.43 13.00L125.43 13.00L125.43 13.00Q124.93 13.00 124.52 12.79L124.52 12.79L124.52 12.79Q124.11 12.58 123.82 12.25L123.82 12.25L123.82 12.25Q123.21 11.55 123.21 10.62L123.21 10.62L123.21 10.62Q123.21 9.65 123.94 8.98L123.94 8.98L123.94 8.98Q125.04 7.98 127.06 7.25L127.06 7.25L127.06 7.25Q129.00 6.53 130.35 6.53L130.35 6.53L130.35 6.53Q130.79 6.53 130.79 6.97L130.79 6.97L130.79 6.97Q130.79 7.27 130.68 7.43L130.68 7.43L130.68 7.43Q130.57 7.59 130.14 7.74L130.14 7.74L130.14 7.74Q129.71 7.89 129.20 8.09L129.20 8.09L129.20 8.09Q128.68 8.30 128.22 8.54ZM144.21 8.07L144.21 8.07L144.21 8.07Q144.54 8.07 144.54 8.44L144.54 8.44L144.54 8.44Q144.54 8.69 144.37 9.06L144.37 9.06L144.37 9.06Q144.20 9.43 143.89 9.76L143.89 9.76L143.89 9.76Q143.58 10.08 143.17 10.43L143.17 10.43L143.17 10.43Q142.76 10.78 142.22 11.16L142.22 11.16L142.22 11.16Q141.67 11.55 141.02 11.92L141.02 11.92L141.02 11.92Q140.36 12.30 139.62 12.60L139.62 12.60L139.62 12.60Q137.99 13.27 136.46 13.27L136.46 13.27L136.46 13.27Q135.29 13.27 134.42 12.66L134.42 12.66L134.42 12.66Q133.50 12.02 133.50 11.12L133.50 11.12L133.50 11.12Q133.50 9.69 135.04 8.40L135.04 8.40L135.04 8.40Q136.36 7.29 138.16 6.69L138.16 6.69L138.16 6.69Q139.25 6.32 140.01 6.32L140.01 6.32L140.01 6.32Q140.63 6.32 141.05 6.62L141.05 6.62L141.05 6.62Q141.50 6.95 141.50 7.50L141.50 7.50L141.50 7.50Q141.50 8.37 140.13 9.42L140.13 9.42L140.13 9.42Q139.91 9.59 139.73 9.71L139.73 9.71L139.49 9.87L139.49 9.87Q138.80 10.35 137.41 10.94L137.41 10.94L137.41 10.94Q137.84 11.17 138.21 11.17L138.21 11.17L138.21 11.17Q138.58 11.17 138.88 11.08L138.88 11.08L138.88 11.08Q139.18 10.99 139.56 10.83L139.56 10.83L139.56 10.83Q139.93 10.66 140.36 10.44L140.36 10.44L140.36 10.44Q140.79 10.21 141.22 9.93L141.22 9.93L141.22 9.93Q142.20 9.32 142.92 8.69L142.92 8.69L142.92 8.69Q143.29 8.34 143.88 8.13L143.88 8.13L143.88 8.13Q144.07 8.07 144.21 8.07ZM136.67 9.99L136.67 9.99L137.05 9.80L137.05 9.80Q137.23 9.71 137.38 9.63L137.38 9.63L137.38 9.63Q138.76 8.83 138.95 8.65L138.95 8.65L138.95 8.65Q139.14 8.46 139.14 8.39L139.14 8.39L139.14 8.39Q139.14 8.32 139.10 8.22L139.10 8.22L139.10 8.22Q139.06 8.13 138.99 8.05L138.99 8.05L138.99 8.05Q138.82 7.86 138.64 7.86L138.64 7.86L138.64 7.86Q138.46 7.86 138.23 7.93L138.23 7.93L138.23 7.93Q138.01 8.00 137.79 8.12L137.79 8.12L137.79 8.12Q137.56 8.24 137.35 8.40L137.35 8.40L137.35 8.40Q137.14 8.57 136.99 8.76L136.99 8.76L136.99 8.76Q136.62 9.19 136.62 9.51L136.62 9.51L136.62 9.51Q136.62 9.82 136.67 9.99Z"></path></g><defs data-v-fde0c5aa=""><linearGradient data-v-fde0c5aa="" gradientTransform="rotate(25)" id="bcb92d88-782c-4cce-910e-7ec4ba4282e3" x1="0%" y1="0%" x2="100%" y2="0%"><stop data-v-fde0c5aa="" offset="0%" stop-color="#01648B" stop-opacity="1"></stop><stop data-v-fde0c5aa="" offset="100%" stop-color="#5BD0A4" stop-opacity="1"></stop></linearGradient></defs><g data-v-fde0c5aa="" id="45bdd5df-53a9-452a-8e48-b2c37be98884" stroke="none" fill="url(#bcb92d88-782c-4cce-910e-7ec4ba4282e3)" transform="matrix(1.7380400812569128,0,0,1.7380400812569128,122.19136015912576,99.47996081212568)"><path d="M16 23.787L8.102 16 16 8.213 23.898 16 16 23.787zM9.525 16L16 22.383 22.475 16 16 9.617 9.525 16z"></path><path d="M15.915 31.778L-.005 16.084 16.085.222l15.92 15.694-16.09 15.862zM1.419 16.084l14.496 14.29 14.666-14.458-14.496-14.29L1.419 16.084z"></path><path d="M15.5.924h1v30.152h-1z"></path></g><!----></svg>